<svg aria-hidden="true" style="position: absolute; width: 0; height: 0; overflow: hidden;" version="1.1" xmlns="http://www.w3.org/2000/svg" xmlns:xlink="http://www.w3.org/1999/xlink">
<defs>
<symbol id="icon-close" viewBox="0 0 32 32">
<path d="M26.667 7.303l-1.97-1.97-7.808 7.808-7.808-7.808-1.97 1.97 7.808 7.808-7.808 7.808 1.97 1.97 7.808-7.808 7.808 7.808 1.97-1.97-7.808-7.808 7.808-7.808z"></path>
</symbol>
<symbol id="icon-email" viewBox="0 0 32 32">
<path d="M26.667 5.333h-21.333c-1.467 0-2.653 1.2-2.653 2.667l-0.013 16c0 1.467 1.2 2.667 2.667 2.667h21.333c1.467 0 2.667-1.2 2.667-2.667v-16c0-1.467-1.2-2.667-2.667-2.667zM26.133 11l-9.427 5.893c-0.427 0.267-0.987 0.267-1.413 0l-9.427-5.893c-0.333-0.213-0.533-0.573-0.533-0.96 0-0.893 0.973-1.427 1.733-0.96l8.933 5.587 8.933-5.587c0.76-0.467 1.733 0.067 1.733 0.96 0 0.387-0.2 0.747-0.533 0.96z"></path>
</symbol>
<symbol id="icon-phone" viewBox="0 0 32 32">
<path d="M24.882 19.773l-3.268-0.373c-0.785-0.090-1.557 0.18-2.11 0.733l-2.367 2.367c-3.641-1.853-6.626-4.825-8.478-8.478l2.38-2.38c0.553-0.553 0.823-1.325 0.733-2.11l-0.373-3.242c-0.154-1.299-1.248-2.277-2.56-2.277h-2.226c-1.454 0-2.663 1.209-2.573 2.663 0.682 10.987 9.469 19.761 20.443 20.443 1.454 0.090 2.663-1.119 2.663-2.573v-2.226c0.013-1.3-0.965-2.393-2.264-2.547z"></path>
</symbol>
<symbol id="icon-person" viewBox="0 0 32 32">
<path d="M16 16c2.947 0 5.333-2.387 5.333-5.333s-2.387-5.333-5.333-5.333c-2.947 0-5.333 2.387-5.333 5.333s2.387 5.333 5.333 5.333zM16 18.667c-3.56 0-10.667 1.787-10.667 5.333v1.333c0 0.733 0.6 1.333 1.333 1.333h18.667c0.733 0 1.333-0.6 1.333-1.333v-1.333c0-3.547-7.107-5.333-10.667-5.333z"></path>
</symbol>
<symbol id="icon-ice-cream" viewBox="0 0 18 32">
<path d="M8.488 1.077c-1.19 0.077-2.188 0.478-2.797 1.125-0.91 0.965-1.688 2.45-1.803 3.447l-0.015 0.14-0.26 0.082c-0.965 0.303-2.027 1.192-2.58 2.155-0.448 0.783-0.575 1.568-0.41 2.522 0.12 0.69 0.347 1.283 1.015 2.637 0.408 0.825 0.703 1.287 1.070 1.68 0.32 0.338 0.62 0.508 0.96 0.545l0.155 0.018 0.065 0.293c0.44 1.918 1.112 4.7 1.565 6.46 0.152 0.593 0.433 1.692 0.623 2.442 0.39 1.532 0.5 1.915 0.82 2.825 0.338 0.955 0.485 1.297 0.713 1.637 0.202 0.305 0.27 0.337 0.482 0.238 0.195-0.095 0.32-0.265 0.553-0.745 0.41-0.85 0.795-1.885 1.783-4.768 0.765-2.233 1.088-3.142 2.457-6.925l0.535-1.475 0.135-0.072c0.328-0.172 0.568-0.395 1.17-1.078 0.24-0.275 0.563-0.63 0.715-0.787 0.708-0.735 0.978-1.215 1.155-2.050 0.060-0.275 0.067-0.37 0.067-0.8 0.003-0.383-0.008-0.533-0.045-0.7-0.15-0.695-0.62-1.613-1.145-2.237-0.565-0.675-1.238-1.185-1.908-1.45l-0.197-0.077 0.010-0.213c0.037-0.66-0.020-1.367-0.14-1.74-0.357-1.107-1.568-2.348-2.793-2.857-0.383-0.16-0.77-0.25-1.205-0.275-0.205-0.012-0.393-0.022-0.412-0.020-0.020 0-0.172 0.010-0.338 0.022z"></path>
</symbol>
</defs>
</svg>
